<svg width="48" height="48" viewBox="0 0 48 48" fill="none" xmlns="http://www.w3.org/2000/svg">
<path d="M47.4286 0.667112C47.0017 0.242404 46.3929 0 45.7548 0H2.24663C1.60859 0 0.999753 0.242404 0.572894 0.667112C0.146034 1.09182 -0.0561623 1.65876 0.0134831 2.22371L4.96056 41.9359C5.05941 42.7432 5.6997 43.4184 6.57589 43.6407L23.3807 47.9219C23.5829 47.974 23.7918 48 23.9985 48C24.2052 48 24.4141 47.974 24.6163 47.9219L41.4211 43.6407C42.2973 43.4184 42.9353 42.7432 43.0364 41.9359L47.9857 2.22371C48.0576 1.65876 47.8554 1.09182 47.4286 0.667112ZM36.3931 20.1816L35.3911 34.776L24.0726 38.0755L12.7541 34.776L12.325 27.7963H18.0539L18.1977 30.9696L24.0726 32.7466L29.9476 30.9696L30.3767 25.2601H17.7686L17.4833 20.1836H30.6642L31.0933 15.1072H11.3208L10.8917 10.0287H37.1098L36.3931 20.1816Z" fill="#EAB464"/>
</svg>
