<svg width="48" height="48" viewBox="0 0 48 48" fill="none" xmlns="http://www.w3.org/2000/svg">
<rect width="48" height="48" fill="#2D2327"/>
<path d="M17 4C13.6863 4 11 6.6863 11 10C11 13.3137 13.6863 16 17 16H31C34.3138 16 37 13.3137 37 10C37 6.6863 34.3138 4 31 4H17Z" fill="#EAB464"/>
<path d="M31 18C27.6862 18 25 20.6862 25 24C25 27.3138 27.6862 30 31 30C34.3138 30 37 27.3138 37 24C37 20.6862 34.3138 18 31 18Z" fill="#EAB464"/>
<path d="M11 24C11 20.6862 13.6863 18 17 18H23V30H17C13.6863 30 11 27.3138 11 24Z" fill="#EAB464"/>
<path d="M17 32C13.6863 32 11 34.6862 11 38C11 41.3138 13.6863 44 17 44C20.3138 44 23 41.3138 23 38V32H17Z" fill="#EAB464"/>
</svg>
