<svg width="50" height="50" viewBox="0 0 50 50" fill="none" xmlns="http://www.w3.org/2000/svg">
<path d="M48.688 21.8368L28.1632 1.31199C27.2928 0.43733 26.1464 0 25 0C23.8536 0 22.7072 0.43733 21.8368 1.31199L17.7777 5.37109L22.8006 10.394C24.4693 9.41321 26.6432 9.62551 28.074 11.0564C29.5049 12.4873 29.713 14.6612 28.7322 16.3256L33.6702 21.2636C35.3388 20.2828 37.5127 20.4951 38.9436 21.926C40.642 23.6243 40.642 26.3757 38.9436 28.074C37.2452 29.7724 34.4939 29.7724 32.7955 28.074C31.3646 26.6432 31.1523 24.4693 32.1332 22.8006L27.1951 17.8626C26.8427 18.0707 26.4733 18.2235 26.087 18.3212V31.6746C27.9594 32.1586 29.3478 33.8443 29.3478 35.8696C29.3478 38.2728 27.4032 40.2174 25 40.2174C22.5968 40.2174 20.6522 38.2728 20.6522 35.8696C20.6522 33.8443 22.0406 32.1586 23.913 31.6746V18.3212C23.187 18.1343 22.4949 17.7734 21.926 17.2045C20.4951 15.7736 20.287 13.5997 21.2678 11.9353L16.2407 6.90812L1.31199 21.8368C-0.43733 23.5819 -0.43733 26.4181 1.31199 28.1632L21.8368 48.688C22.7072 49.5627 23.8536 50 25 50C26.1464 50 27.2928 49.5627 28.1632 48.688L48.688 28.1632C50.4373 26.4181 50.4373 23.5819 48.688 21.8368Z" fill="#EAB464"/>
</svg>
