<svg width="48" height="48" viewBox="0 0 48 48" fill="none" xmlns="http://www.w3.org/2000/svg">
<path d="M47.6932 0.338316C47.4741 0.122285 47.1591 0 46.8304 0H1.16957C0.840876 0 0.525881 0.122285 0.306753 0.338316C0.083055 0.554348 -0.0265093 0.843756 0.00545423 1.13723L4.11867 42.2772C4.15976 42.7092 4.49758 43.0679 4.96323 43.1902L23.6759 47.9592C23.7763 47.9878 23.8859 48 23.9954 48C24.105 48 24.21 47.9878 24.315 47.9592L43.0413 43.1902C43.507 43.0679 43.8402 42.7092 43.8859 42.2772L47.9946 1.13723C48.0265 0.843756 47.9169 0.554348 47.6932 0.338316ZM37.8461 14.5231H15.8603L16.3853 19.8342H37.3166L35.7462 35.5312L23.9909 38.7024L23.8767 38.6698L12.2584 35.5272L11.6238 29.1318H17.3166L17.5631 31.6141L24.0593 32.8288L30.4369 31.6141L31.1171 24.8967H11.1992L9.65164 9.44836H38.3529L37.8461 14.5231Z" fill="#EAB464"/>
</svg>
