<svg width="48" height="48" viewBox="0 0 48 48" fill="none" xmlns="http://www.w3.org/2000/svg">
<path d="M44.9554 0H3.04911C1.36607 0 0 1.36607 0 3.04911V44.9509C0 46.6339 1.36607 48 3.04911 48H44.9509C46.6339 48 48 46.6339 48 44.9554V3.04911C48 1.36607 46.6339 0 44.9554 0ZM26.2857 36.7813C26.2857 41.3482 23.6071 43.4286 19.6964 43.4286C16.1607 43.4286 13.6116 41.058 12.5714 38.8571L16.1652 36.683C16.8571 37.9107 17.9107 38.8571 19.4286 38.8571C20.8795 38.8571 21.7143 38.2902 21.7143 36.0848V21.7143H26.2857V36.7813ZM36.2009 43.4286C32.1518 43.4286 29.8527 41.3884 28.5714 38.8571L32 36.5714C32.933 38.0982 33.9509 39.558 36.1027 39.558C37.9107 39.558 38.8571 38.6563 38.8571 37.4063C38.8571 35.9152 37.875 35.3839 35.8884 34.5134L34.7991 34.0446C31.6518 32.7054 29.558 31.0268 29.558 27.4732C29.558 24.2054 32.0536 21.7143 35.9464 21.7143C38.7188 21.7143 40.7098 22.6786 42.1473 25.2054L38.7545 27.3884C38.0045 26.0446 37.2009 25.5179 35.9464 25.5179C34.6696 25.5179 33.8616 26.3304 33.8616 27.3884C33.8616 28.6964 34.6696 29.2232 36.5402 30.0357L37.6295 30.5045C41.3393 32.0893 43.4286 33.7098 43.4286 37.3527C43.4286 41.2768 40.3438 43.4286 36.2009 43.4286Z" fill="#EAB464"/>
</svg>
