<svg width="36" height="48" viewBox="0 0 36 48" fill="none" xmlns="http://www.w3.org/2000/svg">
<path d="M18 0C8.0595 0 0 8.0595 0 18C0 21.9142 1.28325 25.506 3.41625 28.4475C3.4545 28.518 3.4605 28.5968 3.504 28.6643L15.504 46.6643C16.0605 47.499 16.998 48 18 48C19.002 48 19.9395 47.499 20.496 46.6643L32.496 28.6643C32.5402 28.5968 32.5455 28.518 32.5837 28.4475C34.7167 25.506 36 21.9142 36 18C36 8.0595 27.9405 0 18 0ZM18 24C14.6865 24 12 21.3135 12 18C12 14.6865 14.6865 12 18 12C21.3135 12 24 14.6865 24 18C24 21.3135 21.3135 24 18 24Z" fill="#2D2327"/>
</svg>
